<svg width="50" height="105" viewBox="0 0 50 105" fill="none" xmlns="http://www.w3.org/2000/svg">
<path d="M1.5 25.5H23H34.5C40.0228 25.5 44.5 29.9772 44.5 35.5V39C44.5 44.5229 40.0228 49 34.5 49H15C9.47715 49 5 53.4772 5 59V59.5C5 65.0229 9.47715 69.5 15 69.5H20.5H34.5C40.0228 69.5 44.5 73.9772 44.5 79.5V102.5" stroke="#212121" stroke-width="9"/>
<path d="M25.5731 0.159375C25.7043 0.244945 25.8119 0.360692 25.8863 0.496399C25.9608 0.632105 25.9998 0.783597 26 0.9375V15C26 15.1872 25.9424 15.3701 25.8348 15.5252C25.7272 15.6803 25.5744 15.8004 25.3962 15.87L25.0385 15L25.3962 15.87L25.3904 15.8719L25.3788 15.8775L25.3346 15.8944C25.0818 15.9924 24.8273 16.0861 24.5712 16.1756C24.0635 16.3538 23.3577 16.5938 22.5577 16.8319C20.9885 17.3044 18.9442 17.8125 17.3462 17.8125C15.7173 17.8125 14.3692 17.2875 13.1962 16.8281L13.1423 16.8094C11.9231 16.3313 10.8846 15.9375 9.65385 15.9375C8.30769 15.9375 6.50385 16.3687 4.96731 16.8319C4.27934 17.0409 3.59765 17.2691 2.92308 17.5163V29.0625C2.92308 29.3111 2.82177 29.5496 2.64145 29.7254C2.46113 29.9012 2.21655 30 1.96154 30C1.70652 30 1.46195 29.9012 1.28163 29.7254C1.1013 29.5496 1 29.3111 1 29.0625V0.9375C1 0.68886 1.1013 0.450403 1.28163 0.274587C1.46195 0.0987721 1.70652 0 1.96154 0C2.21655 0 2.46113 0.0987721 2.64145 0.274587C2.82177 0.450403 2.92308 0.68886 2.92308 0.9375V1.46625C3.35769 1.31813 3.87692 1.1475 4.44231 0.97875C6.01154 0.51 8.05769 0 9.65385 0C11.2692 0 12.5846 0.519375 13.7327 0.973125L13.8154 1.00688C15.0115 1.4775 16.0538 1.875 17.3462 1.875C18.6923 1.875 20.4962 1.44375 22.0327 0.980625C22.9083 0.714023 23.7736 0.416324 24.6269 0.088125L24.6635 0.075L24.6712 0.07125H24.6731" fill="#9747FF"/>
<circle cx="44.5" cy="99.5" r="5.5" fill="#8A01FE"/>
</svg>
