<svg width="321" height="128" viewBox="0 0 321 128" fill="none" xmlns="http://www.w3.org/2000/svg">
<path d="M12.8786 72.7126C17.5586 72.7126 21.1436 73.5526 23.6336 75.2326C26.1236 76.8826 27.3686 79.4626 27.3686 82.9726C27.3686 85.1626 26.8586 86.9476 25.8386 88.3276C24.8486 89.6776 23.4086 90.7426 21.5186 91.5226C22.1486 92.3026 22.8086 93.2026 23.4986 94.2226C24.1886 95.2126 24.8636 96.2626 25.5236 97.3726C26.2136 98.4526 26.8736 99.5926 27.5036 100.793C28.1336 101.963 28.7186 103.118 29.2586 104.258H21.3836C20.8136 103.238 20.2286 102.203 19.6286 101.153C19.0586 100.103 18.4586 99.0826 17.8286 98.0926C17.2286 97.1026 16.6286 96.1726 16.0286 95.3026C15.4286 94.4026 14.8286 93.5926 14.2286 92.8726H10.7636V104.258H3.74355V73.5226C5.27356 73.2226 6.84856 73.0126 8.46855 72.8926C10.1186 72.7726 11.5886 72.7126 12.8786 72.7126ZM13.2836 78.6976C12.7736 78.6976 12.3086 78.7126 11.8886 78.7426C11.4986 78.7726 11.1236 78.8026 10.7636 78.8326V87.2926H12.7436C15.3836 87.2926 17.2736 86.9626 18.4136 86.3026C19.5536 85.6426 20.1236 84.5176 20.1236 82.9276C20.1236 81.3976 19.5386 80.3176 18.3686 79.6876C17.2286 79.0276 15.5336 78.6976 13.2836 78.6976ZM54.3056 92.3776C54.3056 94.2376 54.0356 95.9476 53.4956 97.5076C52.9556 99.0376 52.1756 100.358 51.1556 101.468C50.1356 102.548 48.9056 103.388 47.4656 103.988C46.0556 104.588 44.4656 104.888 42.6956 104.888C40.9556 104.888 39.3656 104.588 37.9256 103.988C36.5156 103.388 35.3006 102.548 34.2806 101.468C33.2606 100.358 32.4656 99.0376 31.8956 97.5076C31.3256 95.9476 31.0406 94.2376 31.0406 92.3776C31.0406 90.5176 31.3256 88.8226 31.8956 87.2926C32.4956 85.7626 33.3056 84.4576 34.3256 83.3776C35.3756 82.2976 36.6056 81.4576 38.0156 80.8576C39.4556 80.2576 41.0156 79.9576 42.6956 79.9576C44.4056 79.9576 45.9656 80.2576 47.3756 80.8576C48.8156 81.4576 50.0456 82.2976 51.0656 83.3776C52.0856 84.4576 52.8806 85.7626 53.4506 87.2926C54.0206 88.8226 54.3056 90.5176 54.3056 92.3776ZM47.4656 92.3776C47.4656 90.3076 47.0456 88.6876 46.2056 87.5176C45.3956 86.3176 44.2256 85.7176 42.6956 85.7176C41.1656 85.7176 39.9806 86.3176 39.1406 87.5176C38.3006 88.6876 37.8806 90.3076 37.8806 92.3776C37.8806 94.4476 38.3006 96.0976 39.1406 97.3276C39.9806 98.5276 41.1656 99.1276 42.6956 99.1276C44.2256 99.1276 45.3956 98.5276 46.2056 97.3276C47.0456 96.0976 47.4656 94.4476 47.4656 92.3776ZM68.5446 99.5776C69.2046 99.5776 69.8346 99.5626 70.4346 99.5326C71.0346 99.5026 71.5146 99.4576 71.8746 99.3976V94.3126C71.6046 94.2526 71.1996 94.1926 70.6596 94.1326C70.1196 94.0726 69.6246 94.0426 69.1746 94.0426C68.5446 94.0426 67.9446 94.0876 67.3746 94.1776C66.8346 94.2376 66.3546 94.3726 65.9346 94.5826C65.5146 94.7926 65.1846 95.0776 64.9446 95.4376C64.7046 95.7976 64.5846 96.2476 64.5846 96.7876C64.5846 97.8376 64.9296 98.5726 65.6196 98.9926C66.3396 99.3826 67.3146 99.5776 68.5446 99.5776ZM68.0046 79.9576C69.9846 79.9576 71.6346 80.1826 72.9546 80.6326C74.2746 81.0826 75.3246 81.7276 76.1046 82.5676C76.9146 83.4076 77.4846 84.4276 77.8146 85.6276C78.1446 86.8276 78.3096 88.1626 78.3096 89.6326V103.583C77.3496 103.793 76.0146 104.033 74.3046 104.303C72.5946 104.603 70.5246 104.753 68.0946 104.753C66.5646 104.753 65.1696 104.618 63.9096 104.348C62.6796 104.078 61.6146 103.643 60.7146 103.043C59.8146 102.413 59.1246 101.603 58.6446 100.613C58.1646 99.6226 57.9246 98.4076 57.9246 96.9676C57.9246 95.5876 58.1946 94.4176 58.7346 93.4576C59.3046 92.4976 60.0546 91.7326 60.9846 91.1626C61.9146 90.5926 62.9796 90.1876 64.1796 89.9476C65.3796 89.6776 66.6246 89.5426 67.9146 89.5426C68.7846 89.5426 69.5496 89.5876 70.2096 89.6776C70.8996 89.7376 71.4546 89.8276 71.8746 89.9476V89.3176C71.8746 88.1776 71.5296 87.2626 70.8396 86.5726C70.1496 85.8826 68.9496 85.5376 67.2396 85.5376C66.0996 85.5376 64.9746 85.6276 63.8646 85.8076C62.7546 85.9576 61.7946 86.1826 60.9846 86.4826L60.1296 81.0826C60.5196 80.9626 60.9996 80.8426 61.5696 80.7226C62.1696 80.5726 62.8146 80.4526 63.5046 80.3626C64.1946 80.2426 64.9146 80.1526 65.6646 80.0926C66.4446 80.0026 67.2246 79.9576 68.0046 79.9576ZM90.0877 92.2426C90.0877 94.3126 90.5527 95.9776 91.4827 97.2376C92.4127 98.4976 93.7927 99.1276 95.6227 99.1276C96.2227 99.1276 96.7777 99.1126 97.2877 99.0826C97.7977 99.0226 98.2177 98.9626 98.5477 98.9026V86.7076C98.1277 86.4376 97.5727 86.2126 96.8827 86.0326C96.2227 85.8526 95.5477 85.7626 94.8577 85.7626C91.6777 85.7626 90.0877 87.9226 90.0877 92.2426ZM105.253 103.493C104.653 103.673 103.963 103.853 103.183 104.033C102.403 104.183 101.578 104.318 100.708 104.438C99.8677 104.558 98.9977 104.648 98.0977 104.708C97.2277 104.798 96.3877 104.843 95.5777 104.843C93.6277 104.843 91.8877 104.558 90.3577 103.988C88.8277 103.418 87.5377 102.608 86.4877 101.558C85.4377 100.478 84.6277 99.1876 84.0577 97.6876C83.5177 96.1576 83.2477 94.4476 83.2477 92.5576C83.2477 90.6376 83.4877 88.9126 83.9677 87.3826C84.4477 85.8226 85.1377 84.5026 86.0377 83.4226C86.9377 82.3426 88.0327 81.5176 89.3227 80.9476C90.6427 80.3776 92.1427 80.0926 93.8227 80.0926C94.7527 80.0926 95.5777 80.1826 96.2977 80.3626C97.0477 80.5426 97.7977 80.7976 98.5477 81.1276V70.4176L105.253 69.3376V103.493ZM124.536 91.7026C124.536 89.5426 124.251 88.0126 123.681 87.1126C123.141 86.2126 122.196 85.7626 120.846 85.7626C120.426 85.7626 119.991 85.7926 119.541 85.8526C119.091 85.8826 118.656 85.9276 118.236 85.9876V104.258H111.531V81.3976C112.101 81.2476 112.761 81.0976 113.511 80.9476C114.291 80.7676 115.101 80.6176 115.941 80.4976C116.811 80.3476 117.696 80.2426 118.596 80.1826C119.496 80.0926 120.381 80.0476 121.251 80.0476C122.961 80.0476 124.341 80.2726 125.391 80.7226C126.471 81.1426 127.356 81.6526 128.046 82.2526C129.006 81.5626 130.101 81.0226 131.331 80.6326C132.591 80.2426 133.746 80.0476 134.796 80.0476C136.686 80.0476 138.231 80.3176 139.431 80.8576C140.661 81.3676 141.636 82.1026 142.356 83.0626C143.076 84.0226 143.571 85.1626 143.841 86.4826C144.111 87.8026 144.246 89.2726 144.246 90.8926V104.258H137.541V91.7026C137.541 89.5426 137.256 88.0126 136.686 87.1126C136.146 86.2126 135.201 85.7626 133.851 85.7626C133.491 85.7626 132.981 85.8526 132.321 86.0326C131.691 86.2126 131.166 86.4376 130.746 86.7076C130.956 87.3976 131.091 88.1326 131.151 88.9126C131.211 89.6626 131.241 90.4726 131.241 91.3426V104.258H124.536V91.7026ZM159.38 99.5776C160.04 99.5776 160.67 99.5626 161.27 99.5326C161.87 99.5026 162.35 99.4576 162.71 99.3976V94.3126C162.44 94.2526 162.035 94.1926 161.495 94.1326C160.955 94.0726 160.46 94.0426 160.01 94.0426C159.38 94.0426 158.78 94.0876 158.21 94.1776C157.67 94.2376 157.19 94.3726 156.77 94.5826C156.35 94.7926 156.02 95.0776 155.78 95.4376C155.54 95.7976 155.42 96.2476 155.42 96.7876C155.42 97.8376 155.765 98.5726 156.455 98.9926C157.175 99.3826 158.15 99.5776 159.38 99.5776ZM158.84 79.9576C160.82 79.9576 162.47 80.1826 163.79 80.6326C165.11 81.0826 166.16 81.7276 166.94 82.5676C167.75 83.4076 168.32 84.4276 168.65 85.6276C168.98 86.8276 169.145 88.1626 169.145 89.6326V103.583C168.185 103.793 166.85 104.033 165.14 104.303C163.43 104.603 161.36 104.753 158.93 104.753C157.4 104.753 156.005 104.618 154.745 104.348C153.515 104.078 152.45 103.643 151.55 103.043C150.65 102.413 149.96 101.603 149.48 100.613C149 99.6226 148.76 98.4076 148.76 96.9676C148.76 95.5876 149.03 94.4176 149.57 93.4576C150.14 92.4976 150.89 91.7326 151.82 91.1626C152.75 90.5926 153.815 90.1876 155.015 89.9476C156.215 89.6776 157.46 89.5426 158.75 89.5426C159.62 89.5426 160.385 89.5876 161.045 89.6776C161.735 89.7376 162.29 89.8276 162.71 89.9476V89.3176C162.71 88.1776 162.365 87.2626 161.675 86.5726C160.985 85.8826 159.785 85.5376 158.075 85.5376C156.935 85.5376 155.81 85.6276 154.7 85.8076C153.59 85.9576 152.63 86.1826 151.82 86.4826L150.965 81.0826C151.355 80.9626 151.835 80.8426 152.405 80.7226C153.005 80.5726 153.65 80.4526 154.34 80.3626C155.03 80.2426 155.75 80.1526 156.5 80.0926C157.28 80.0026 158.06 79.9576 158.84 79.9576ZM190.373 92.6026C190.373 90.5326 189.908 88.8826 188.978 87.6526C188.048 86.3926 186.668 85.7626 184.838 85.7626C184.238 85.7626 183.683 85.7926 183.173 85.8526C182.663 85.8826 182.243 85.9276 181.913 85.9876V98.0926C182.333 98.3626 182.873 98.5876 183.533 98.7676C184.223 98.9476 184.913 99.0376 185.603 99.0376C188.783 99.0376 190.373 96.8926 190.373 92.6026ZM197.213 92.4226C197.213 94.2526 196.988 95.9176 196.538 97.4176C196.088 98.9176 195.428 100.208 194.558 101.288C193.688 102.368 192.608 103.208 191.318 103.808C190.028 104.408 188.543 104.708 186.863 104.708C185.933 104.708 185.063 104.618 184.253 104.438C183.443 104.258 182.663 104.003 181.913 103.673V112.583H175.208V81.3976C175.808 81.2176 176.498 81.0526 177.278 80.9026C178.058 80.7226 178.868 80.5726 179.708 80.4526C180.578 80.3326 181.448 80.2426 182.318 80.1826C183.218 80.0926 184.073 80.0476 184.883 80.0476C186.833 80.0476 188.573 80.3476 190.103 80.9476C191.633 81.5176 192.923 82.3426 193.973 83.4226C195.023 84.4726 195.818 85.7626 196.358 87.2926C196.928 88.8226 197.213 90.5326 197.213 92.4226ZM209.161 99.4426C210.391 99.4426 211.261 99.3226 211.771 99.0826C212.281 98.8426 212.536 98.3776 212.536 97.6876C212.536 97.1476 212.206 96.6826 211.546 96.2926C210.886 95.8726 209.881 95.4076 208.531 94.8976C207.481 94.5076 206.521 94.1026 205.651 93.6826C204.811 93.2626 204.091 92.7676 203.491 92.1976C202.891 91.5976 202.426 90.8926 202.096 90.0826C201.766 89.2726 201.601 88.2976 201.601 87.1576C201.601 84.9376 202.426 83.1826 204.076 81.8926C205.726 80.6026 207.991 79.9576 210.871 79.9576C212.311 79.9576 213.691 80.0926 215.011 80.3626C216.331 80.6026 217.381 80.8726 218.161 81.1726L216.991 86.3926C216.211 86.1226 215.356 85.8826 214.426 85.6726C213.526 85.4626 212.506 85.3576 211.366 85.3576C209.266 85.3576 208.216 85.9426 208.216 87.1126C208.216 87.3826 208.261 87.6226 208.351 87.8326C208.441 88.0426 208.621 88.2526 208.891 88.4626C209.161 88.6426 209.521 88.8526 209.971 89.0926C210.451 89.3026 211.051 89.5426 211.771 89.8126C213.241 90.3526 214.456 90.8926 215.416 91.4326C216.376 91.9426 217.126 92.5126 217.666 93.1426C218.236 93.7426 218.626 94.4176 218.836 95.1676C219.076 95.9176 219.196 96.7876 219.196 97.7776C219.196 100.118 218.311 101.888 216.541 103.088C214.801 104.288 212.326 104.888 209.116 104.888C207.016 104.888 205.261 104.708 203.851 104.348C202.471 103.988 201.511 103.688 200.971 103.448L202.096 98.0026C203.236 98.4526 204.406 98.8126 205.606 99.0826C206.806 99.3226 207.991 99.4426 209.161 99.4426ZM251.543 92.2426C251.543 94.3126 252.008 95.9776 252.938 97.2376C253.868 98.4976 255.248 99.1276 257.078 99.1276C257.678 99.1276 258.233 99.1126 258.743 99.0826C259.253 99.0226 259.673 98.9626 260.003 98.9026V86.7076C259.583 86.4376 259.028 86.2126 258.338 86.0326C257.678 85.8526 257.003 85.7626 256.313 85.7626C253.133 85.7626 251.543 87.9226 251.543 92.2426ZM266.708 103.493C266.108 103.673 265.418 103.853 264.638 104.033C263.858 104.183 263.033 104.318 262.163 104.438C261.323 104.558 260.453 104.648 259.553 104.708C258.683 104.798 257.843 104.843 257.033 104.843C255.083 104.843 253.343 104.558 251.813 103.988C250.283 103.418 248.993 102.608 247.943 101.558C246.893 100.478 246.083 99.1876 245.513 97.6876C244.973 96.1576 244.703 94.4476 244.703 92.5576C244.703 90.6376 244.943 88.9126 245.423 87.3826C245.903 85.8226 246.593 84.5026 247.493 83.4226C248.393 82.3426 249.488 81.5176 250.778 80.9476C252.098 80.3776 253.598 80.0926 255.278 80.0926C256.208 80.0926 257.033 80.1826 257.753 80.3626C258.503 80.5426 259.253 80.7976 260.003 81.1276V70.4176L266.708 69.3376V103.493ZM271.861 92.6026C271.861 90.5026 272.176 88.6726 272.806 87.1126C273.466 85.5226 274.321 84.2026 275.371 83.1526C276.421 82.1026 277.621 81.3076 278.971 80.7676C280.351 80.2276 281.761 79.9576 283.201 79.9576C286.561 79.9576 289.216 80.9926 291.166 83.0626C293.116 85.1026 294.091 88.1176 294.091 92.1076C294.091 92.4976 294.076 92.9326 294.046 93.4126C294.016 93.8626 293.986 94.2676 293.956 94.6276H278.746C278.896 96.0076 279.541 97.1026 280.681 97.9126C281.821 98.7226 283.351 99.1276 285.271 99.1276C286.501 99.1276 287.701 99.0226 288.871 98.8126C290.071 98.5726 291.046 98.2876 291.796 97.9576L292.696 103.403C292.336 103.583 291.856 103.763 291.256 103.943C290.656 104.123 289.981 104.273 289.231 104.393C288.511 104.543 287.731 104.663 286.891 104.753C286.051 104.843 285.211 104.888 284.371 104.888C282.241 104.888 280.381 104.573 278.791 103.943C277.231 103.313 275.926 102.458 274.876 101.378C273.856 100.268 273.091 98.9626 272.581 97.4626C272.101 95.9626 271.861 94.3426 271.861 92.6026ZM287.611 90.0376C287.581 89.4676 287.476 88.9126 287.296 88.3726C287.146 87.8326 286.891 87.3526 286.531 86.9326C286.201 86.5126 285.766 86.1676 285.226 85.8976C284.716 85.6276 284.071 85.4926 283.291 85.4926C282.541 85.4926 281.896 85.6276 281.356 85.8976C280.816 86.1376 280.366 86.4676 280.006 86.8876C279.646 87.3076 279.361 87.8026 279.151 88.3726C278.971 88.9126 278.836 89.4676 278.746 90.0376H287.611ZM305.7 104.258C304.17 101.258 302.61 97.7476 301.02 93.7276C299.46 89.7076 297.975 85.3276 296.565 80.5876H303.675C303.975 81.7576 304.32 83.0326 304.71 84.4126C305.13 85.7626 305.55 87.1426 305.97 88.5526C306.42 89.9326 306.855 91.2826 307.275 92.6026C307.725 93.9226 308.16 95.1226 308.58 96.2026C308.97 95.1226 309.39 93.9226 309.84 92.6026C310.29 91.2826 310.725 89.9326 311.145 88.5526C311.595 87.1426 312.015 85.7626 312.405 84.4126C312.825 83.0326 313.185 81.7576 313.485 80.5876H320.415C319.005 85.3276 317.505 89.7076 315.915 93.7276C314.355 97.7476 312.81 101.258 311.28 104.258H305.7Z" fill="#8A01FE"/>
<path d="M197.19 25.1136H215.209H223.229C228.752 25.1136 233.229 29.5908 233.229 35.1136V38.2576C233.229 43.7804 228.752 48.2576 223.229 48.2576H210.123C204.6 48.2576 200.123 52.8294 200.123 58.3523V58.3523C200.123 63.8751 204.6 68.447 210.123 68.447H213.114H223.229C228.752 68.447 233.229 72.9241 233.229 78.447V100.947" stroke="#212121" stroke-width="9"/>
<path d="M217.367 0.15696C217.477 0.241234 217.567 0.355227 217.63 0.488878C217.692 0.622528 217.725 0.771724 217.725 0.923295V14.7727C217.725 14.9571 217.677 15.1373 217.587 15.29C217.496 15.4427 217.368 15.561 217.219 15.6295L216.919 14.7727L217.219 15.6295L217.214 15.6314L217.204 15.6369L217.167 15.6536C216.955 15.75 216.742 15.8424 216.527 15.9305C216.102 16.106 215.51 16.3423 214.84 16.5768C213.525 17.0422 211.811 17.5426 210.472 17.5426C209.107 17.5426 207.977 17.0256 206.994 16.5732L206.949 16.5547C205.927 16.0838 205.056 15.696 204.025 15.696C202.897 15.696 201.385 16.1207 200.097 16.5768C199.52 16.7827 198.949 17.0075 198.384 17.2509V28.6222C198.384 28.867 198.299 29.1019 198.148 29.275C197.997 29.4482 197.792 29.5455 197.578 29.5455C197.364 29.5455 197.159 29.4482 197.008 29.275C196.857 29.1019 196.772 28.867 196.772 28.6222V0.923295C196.772 0.678422 196.857 0.443578 197.008 0.270427C197.159 0.0972755 197.364 0 197.578 0C197.792 0 197.997 0.0972755 198.148 0.270427C198.299 0.443578 198.384 0.678422 198.384 0.923295V1.44403C198.748 1.29815 199.183 1.13011 199.657 0.96392C200.972 0.502273 202.687 0 204.025 0C205.379 0 206.481 0.511506 207.443 0.958381L207.513 0.991619C208.515 1.45511 209.389 1.84659 210.472 1.84659C211.6 1.84659 213.112 1.42187 214.4 0.965767C215.134 0.703204 215.859 0.410016 216.574 0.0867898L216.605 0.0738636L216.611 0.0701705H216.613" fill="#9747FF"/>
<ellipse cx="233.239" cy="97.9924" rx="4.60966" ry="5.41667" fill="#8A01FE"/>
</svg>
